<?xml version="1.0" encoding="utf-8"?>
<!-- Generator: Adobe Illustrator 16.0.0, SVG Export Plug-In . SVG Version: 6.00 Build 0)  -->
<!DOCTYPE svg PUBLIC "-//W3C//DTD SVG 1.1//EN" "http://www.w3.org/Graphics/SVG/1.1/DTD/svg11.dtd">
<svg version="1.1" id="Layer_1" xmlns="http://www.w3.org/2000/svg" xmlns:xlink="http://www.w3.org/1999/xlink" x="0px" y="0px"
	 width="1182px" height="1181.003px" viewBox="0 0 1182 1181.003" enable-background="new 0 0 1182 1181.003" xml:space="preserve">
<g>
	<path fill="#36AEA9" d="M590.339,1131.371l-20.057-20.773l-438.19-438.238l-33.243-33.244
		c-32.313-32.298-57.339-69.978-74.38-111.985C8.014,486.567-0.33,443.71-0.33,399.752c0-43.957,8.343-86.821,24.796-127.401
		c17.039-42.024,42.062-79.729,74.374-112.067c32.312-32.312,69.994-57.328,112.006-74.362
		c40.564-16.447,83.42-24.787,127.376-24.787s86.813,8.339,127.381,24.786c42.015,17.034,79.7,42.05,112.009,74.352l13.041,13.089
		l13.015-13.056c32.334-32.333,70.019-57.35,112.037-74.385c40.568-16.447,83.428-24.786,127.39-24.786
		c43.963,0,86.822,8.339,127.391,24.786c42.019,17.035,79.703,42.051,112.005,74.354c32.32,32.347,57.344,70.051,74.383,112.076
		c16.453,40.58,24.797,83.444,24.797,127.401c0,43.959-8.344,86.815-24.799,127.378c-17.041,42.008-42.067,79.688-74.385,111.99
		l-33.175,33.226L590.339,1131.371z M338.223,118.237c-75.178,0-145.85,29.269-198.998,82.416
		c-109.726,109.817-109.731,288.4-0.003,398.082l33.249,33.249l418.226,418.272l418.224-418.271l33.179-33.23
		c109.75-109.702,109.744-288.285,0.008-398.11c-53.139-53.138-123.817-82.407-199.011-82.407
		c-75.192,0-145.872,29.269-199.019,82.416l-53.438,53.602l-53.439-53.64C484.081,147.507,413.402,118.237,338.223,118.237z"/>
</g>
</svg>
